<svg width="54" height="22" viewBox="0 0 54 22" fill="none" xmlns="http://www.w3.org/2000/svg">
<path d="M1.5 9.54594C0.67157 9.54594 0 10.2175 0 11.0459C0 11.8743 0.67157 12.5459 1.5 12.5459V9.54594ZM53.5607 12.1066C54.1464 11.5208 54.1464 10.571 53.5607 9.98524L44.0147 0.439342C43.4289 -0.146447 42.4792 -0.146447 41.8934 0.439342C41.3076 1.02513 41.3076 1.97487 41.8934 2.56066L50.3787 11.0459L41.8934 19.5312C41.3076 20.117 41.3076 21.0667 41.8934 21.6525C42.4792 22.2383 43.4289 22.2383 44.0147 21.6525L53.5607 12.1066ZM1.5 12.5459H52.5V9.54594H1.5V12.5459Z" fill="black"/>
</svg>
