<svg id="Layer_1" data-name="Layer 1" xmlns="http://www.w3.org/2000/svg" viewBox="0 0 525.92 403.85"><defs><style>.cls-1{fill:#010101;}.cls-2{fill:#f7a41d;}</style></defs><path class="cls-1" d="M7.81,413.34H533.72s0-403.85-263-403.85S7.81,413.34,7.81,413.34Z" transform="translate(-7.81 -9.49)"/><path class="cls-2" d="M132,157.63s55-60.4,108.3,0C240.27,157.63,189.76,212.37,132,157.63Z" transform="translate(-7.81 -9.49)"/><path class="cls-2" d="M302.68,157.63s55-60.4,108.3,0C411,157.63,360.47,212.37,302.68,157.63Z" transform="translate(-7.81 -9.49)"/><path class="cls-2" d="M107.39,230s55-60.4,108.3,0C215.69,230,165.18,284.75,107.39,230Z" transform="translate(-7.81 -9.49)"/><path class="cls-2" d="M327.27,230s55-60.4,108.3,0C435.57,230,385.05,284.75,327.27,230Z" transform="translate(-7.81 -9.49)"/><path class="cls-2" d="M130.61,302.39s55-60.39,108.3,0C238.91,302.39,188.4,357.13,130.61,302.39Z" transform="translate(-7.81 -9.49)"/><path class="cls-2" d="M301.32,302.39s55-60.4,108.3,0C409.62,302.39,359.11,357.13,301.32,302.39Z" transform="translate(-7.81 -9.49)"/><circle class="cls-1" cx="177.16" cy="291.18" r="12.97"/><circle class="cls-1" cx="153.94" cy="218.8" r="12.97"/><circle class="cls-1" cx="178.52" cy="147.79" r="12.97"/><circle class="cls-1" cx="347.87" cy="147.79" r="12.97"/><circle class="cls-1" cx="375.18" cy="218.8" r="12.97"/><circle class="cls-1" cx="349.23" cy="291.18" r="12.97"/></svg>