<svg width="61" height="53" viewBox="0 0 61 53" fill="none" xmlns="http://www.w3.org/2000/svg">
<path d="M41.7178 18.3317L60.4288 23.1512C60.5999 23.1948 60.7492 23.2877 60.8527 23.415C60.9562 23.5422 61.0077 23.6963 60.9991 23.8524C60.9904 24.0085 60.922 24.1574 60.8049 24.2752C60.6878 24.393 60.5289 24.4727 60.3538 24.5015L43.4041 27.339C43.2737 27.3608 43.1518 27.4109 43.0493 27.4848C42.9468 27.5587 42.8671 27.654 42.8175 27.7619C42.7679 27.8699 42.7501 27.987 42.7655 28.1026C42.781 28.2182 42.8293 28.3285 42.906 28.4235L59.2608 48.9177C59.368 49.049 59.4196 49.209 59.4069 49.3701C59.3942 49.5313 59.3179 49.6835 59.1911 49.8006C59.0643 49.9177 58.895 49.9924 58.7123 50.0119C58.5295 50.0314 58.3447 49.9945 58.1896 49.9074L32.3953 36.0067C32.2965 35.9515 32.1849 35.9161 32.0687 35.9032C31.9524 35.8904 31.8344 35.9003 31.723 35.9322C31.6117 35.9642 31.5098 36.0175 31.4247 36.0882C31.3397 36.1588 31.2735 36.2452 31.2311 36.341L24.0539 52.5551C23.9886 52.7038 23.867 52.8282 23.7096 52.9076C23.5521 52.987 23.3684 53.0165 23.1891 52.9912C23.0098 52.9659 22.8459 52.8873 22.7247 52.7687C22.6036 52.65 22.5326 52.4984 22.5237 52.3393L21.1945 30.5924C21.1836 30.4383 21.1146 30.2919 20.9983 30.1761C20.882 30.0602 20.7251 29.9817 20.5524 29.9527L0.652144 25.6439C0.467204 25.6148 0.300084 25.5289 0.18064 25.4017C0.0611961 25.2744 -0.00279454 25.1141 9.03117e-05 24.9493C0.00297516 24.7845 0.0725538 24.6259 0.196395 24.5019C0.320236 24.378 0.490266 24.2967 0.676139 24.2725L17.2008 21.1139C17.3455 21.0938 17.481 21.0389 17.5922 20.9552C17.7035 20.8716 17.7861 20.7625 17.8309 20.6402L25.2211 0.488312C25.2706 0.350342 25.3677 0.229269 25.499 0.141848C25.6304 0.054427 25.7894 0.00498139 25.9542 0.000355666C26.119 -0.00427005 26.2813 0.036151 26.4188 0.116027C26.5562 0.195903 26.662 0.311282 26.7214 0.446196L33.3584 15.081C33.4123 15.1997 33.5023 15.3031 33.6185 15.38C33.7348 15.4569 33.8729 15.5043 34.0177 15.517C34.1626 15.5298 34.3087 15.5074 34.44 15.4524C34.5714 15.3973 34.683 15.3116 34.7627 15.2047L42.915 4.25757C43.0174 4.12324 43.1697 4.02426 43.3461 3.97754C43.5224 3.93082 43.7118 3.93925 43.8818 4.0014C44.0518 4.06355 44.192 4.17556 44.2783 4.3183C44.3647 4.46104 44.3919 4.62564 44.3552 4.784L41.1717 17.5131C41.1276 17.6849 41.1594 17.8649 41.2608 18.0169C41.3622 18.1688 41.5255 18.2814 41.7178 18.3317Z" fill="#010101"/>
</svg>
