<svg id="Layer_1" data-name="Layer 1" xmlns="http://www.w3.org/2000/svg" viewBox="0 0 192.46 175.42"><defs><style>.cls-1{fill:#f6a31c;}.cls-2{fill:#ea5a1e;}.cls-3{fill:#fff;}.cls-4{fill:#010101;}.cls-5{fill:#008c6a;}</style></defs><rect class="cls-1" x="131.07" y="105.57" width="160.25" height="4.83" transform="translate(-48.19 221.29) rotate(-65.49)"/><circle class="cls-2" cx="148.83" cy="49.41" r="43.62"/><rect class="cls-3" x="190.15" y="74.54" width="64.42" height="17.89" transform="matrix(0.91, 0.41, -0.41, 0.91, -18.87, -118.79)"/><path class="cls-4" d="M73.53,209.5H208.38S208.38,106,141,106,73.53,209.5,73.53,209.5Z" transform="translate(-73.53 -34.07)"/><path class="cls-5" d="M167.21,169.32s-26.48,29.09-52.18,0C115,169.32,139.37,142.94,167.21,169.32Z" transform="translate(-73.53 -34.07)"/><path class="cls-5" d="M167.21,136.4s-26.48,29.1-52.18,0C115,136.4,139.37,110,167.21,136.4Z" transform="translate(-73.53 -34.07)"/><circle class="cls-4" cx="67.42" cy="107.28" r="5.6"/><circle class="cls-4" cx="67.42" cy="131.09" r="5.6"/></svg>